<?xml version="1.0" encoding="UTF-8"?>
<svg fill="none" viewBox="0 0 38 40" xmlns="http://www.w3.org/2000/svg">
<path d="m37 8.4616c-6.66-0.6325-13.36-0.95834-20.04-0.95834-3.96 0-7.92 0.19167-11.88 0.575l-4.08 0.38334m11-1.9358 0.44-2.5108c0.32-1.8208 0.56-3.1817 3.94-3.1817h5.24c3.38 0 3.64 1.4375 3.94 3.2008l0.44 2.4917m6.7 7.9925-1.3 19.301c-0.22 3.0092-0.4 5.3475-5.98 5.3475h-12.84c-5.58 0-5.76-2.3383-5.98-5.3475l-1.3-19.301m10.36 14.107h6.66m-8.32-7.6667h10" stroke="#DCDFE0" stroke-linecap="round" stroke-linejoin="round" stroke-width="1.5"/>
</svg>
