<?xml version="1.0" encoding="UTF-8"?>
<svg fill="none" viewBox="0 0 102 62" xmlns="http://www.w3.org/2000/svg">
<path d="m0.26538 40.525c0-4.7974 1.7568-9.0524 5.2705-12.807 3.5137-3.7545 7.9546-6.174 13.371-7.2169 1.5129-5.7151 4.9778-10.387 10.297-14.058 5.3193-3.671 11.468-5.5065 18.349-5.5065 6.7346 0 12.737 1.7938 18.008 5.3396 5.2705 3.5459 8.6866 8.1347 10.248 13.725h1.6104c4.3921 0 8.4426 0.9178 12.152 2.7115 3.7089 1.7938 6.6858 4.2968 8.833 7.4672 2.1475 3.1704 3.2695 6.5911 3.2695 10.346 0 3.671-1.025 7.0917-3.0742 10.22-2.0497 3.1287-4.8802 5.6316-8.4426 7.5089-3.5625 1.8772-7.5154 2.8784-11.761 3.0035h-54.706c-6.5393-0.2503-12.054-2.3778-16.592-6.3825-4.5385-3.9631-6.8322-8.7604-6.8322-14.35zm8.345 0c0 3.6293 1.464 6.758 4.3921 9.4278s6.4905 4.0881 10.687 4.2967h54.609c4.1969-0.1668 7.7594-1.6269 10.687-4.2967 2.9769-2.6698 4.4409-5.8403 4.4409-9.4278 0-3.671-1.6104-6.7997-4.7825-9.4696-3.1721-2.6698-6.9298-4.0047-11.322-4.0047h-7.8082c-0.5368 0-0.8296-0.2503-0.8296-0.7509l-0.3416-2.3778c-0.5368-4.5053-2.8304-8.3015-6.8321-11.347-4.0017-3.0453-8.6378-4.5888-13.957-4.5888-5.3193 0-10.004 1.5435-13.908 4.5888-3.9529 3.0452-6.1978 6.8414-6.6858 11.347l-0.3904 2.3778c0 0.5006-0.3416 0.7509-0.976 0.7509h-2.5865c-4.0993 0.4172-7.5154 1.9189-10.248 4.4636-2.7329 2.5447-4.1481 5.5482-4.1481 9.0107z" fill="#8ECAE6"/>
</svg>
